<svg xmlns="http://www.w3.org/2000/svg" viewBox="0 0 536.4 736.59"><defs><style>.cls-1{fill-rule:evenodd;}</style></defs><g id="图层_2" data-name="图层 2"><g id="图层_1-2" data-name="图层 1"><path class="cls-1" d="M120.24,132c.16-.57.4-3.57,1.12-3.71,2.28-.46,1.19,2.35,2,3.59,3.75,6.2,5.94,12.6,1.21,19.4-1.84,2.63.13,3.37,1.4,5.16,4.91,7,8.53,14,4.47,23.62-3,7.2-4.25,15.33-6.21,22.83,4.67,2.44,5-3.77,8.15-3.33,1,4.09.12,7.51-1.52,11-1.73,3.66-7,7.46,1.47,10.71,2.43.93.28,8.86-.8,13.62-1.71,7.56-6.06,14.75,0,23.1,2.75,3.76-1.58,9.78-2.51,14.81-2.56,14-6.53,27.91,7.14,38.34,1.41,1.07,2.22,3.91,2.33,6,1.14,22.45,14.27,41.54,15.15,64.07.07,2,1.39,5.26,2.7,5.65,7.87,2.32,6.46,9.46,7.23,15.37.6,4.62.37,4.66,5,5.78,1.81.43,1.21,2.23,1.68,3.41,3.09,7.67,5.27,15.7,8.5,23.41,4.64,11.05,8.47,23.3,14.11,33.19,3.56,6.26,4.26,16.57,13,19.94,2.54,1,.8,6.19,1.14,9.45.66,6.31.69,6.56,6.66,5,2.41-.62,2,1.34,2.29,2.16,2.57,6.27,9.55,10.86,6.37,19.35,6.85-3,3.7,13.57,12.6,7.49,2.42-1.65,8.32,9.43,6.62,13.15-11.18,24.46-26.46,45.54-46,62.57-7.79,6.79-17.8,6.49-27.36,5.21-10.53-1.41-21-3.73-31.51-4.78-10.17-1-19.07,9.49-17.45,20.18.86,5.7,4.4,2.87,6.9,1.46,8.4-4.71,17.05-6.33,27.15-3.57-14.89,6-17.93,10.41-16.49,26.67,8.31-14.05,19.35-12.36,30.62-10.83-.13,4.08-3,5.41-4.55,7.69-1.67,2.45-3.82,4.94-1.22,7.8,2.35,2.6,5.39,1.25,7.54-.4,11.45-8.78,25.88-11,37.06-20.27,1.85-1.53,3.9-2.43,5.67-1.59,12.77,6,25.44,4.29,38-.4,13.36-5,26.84-7.6,41.09-6.33,13.56,1.21,25.32-10.39,39.72-7,4,.94,5.23,1.08,6.44,5.41,4.66,16.64,9.9,33.08,15.09,49.53,2.71,8.59,7.44,14.94,16.52,15.88,3.31.34,5.53,2.62,7.48,5.36,5.48,7.67,12.06,12.75,21.68,11.68,5.62-.63,9.84,3.55,13.59,7,5.07,4.7,10.81,7.3,16.85,6.28,8.42-1.43,14.66,2.22,20.34,7.61,9.13,8.66,18.93,7,28.72,2.63,4.1-1.83,6.76-2,11,.46,8.88,5.23,18.32,5.57,26.62-2.39,13.66-13.11,23.57-26.72,21-49.48-3-26.82-2.14-53.92-13.81-79.11a376.9,376.9,0,0,0-34-58.81c-7.4-10.48-11.73-21.73-15-33.44-6-21.29-8.35-43.38-10.39-65.66A500.21,500.21,0,0,0,443.46,345c-10.42-34.59-20.58-69.13-36.74-101.58-9.1-18.28-15.15-38.58-27-55.25-19.24-27-40.09-52.06-66.3-72C296.61,103.41,283.84,85,270.15,68.13A87.73,87.73,0,0,0,250,50c-11.53-7.55-18-20.91-28.61-29.89C205.68,6.77,189.05-1.13,168.77.13c-21.15,1.32-41.3,3.24-60.87,15.27-10.62,6.54-25.8,5.15-38.87,8-23.38,5.11-44.78,15-65.32,27.65-2.54,1.56-4.78,4-3.16,7.16,1.37,2.71,3.12,5.75,7,5.55C32.09,62.56,54.27,73.09,76.92,81c7.39,2.57,14.28,7,21.17,11a18,18,0,0,1,8.2,11c2.68,10.67,3.32,22.17,13.95,29Zm383.09,522.5c3.65-.26,3.64-3.26,2.83-5.63-2.18-6.34-3.69-12.72-3.12-19.51.51-6.21-10.81.94-7.67-8.79-.36,12.8,8.19,22.31,8.3,34.29h0c-4-1.39-4.83-5.55-6.82-8.88-7.41-12.41-6.6-29.9-20.4-38.5-2.18-1.36-3.35-5.56-4-8.69-1.4-6.89,2.65-3.87,6.55-2.38-5.67-9.23-9.08-18-5.46-28.15,10.7,15,15.79,33.9,29.69,46.17h0c-1.1-6.44,3.68-15.45-4.06-18.79-7.08-3-7.73-8.62-8.84-14.93,10.84,4.84,19.65,11.18,19.87,26,0,2.92,2.67,5.6.08,8.93-3.65,4.68-4.45-3.92-7.41-1.63,1.78,7.1,3.79,14.15,5.28,21.32,2.41,11.55,6.21,23.09,1.68,36.85-4.7-6-8-10.76-6.52-17.73ZM179.06,79l3.26-2.12c8.14,6.35,7.17,18.08,10.24,27.46L179.06,79Zm40.32,52.13L200.93,92.6l-2.35,1.46c5.14,13.46,7.92,28.41,21.08,36.83h0c-.07,1.65-.14,3.29-.2,4.94-9.33-1.14-9.86-13.86-18.11-17.11-.67,5.14,6.44,10.78.28,13.22-5.3,2.11-8.28-4.41-10.16-9.8-1.17-3.36-2.76-6.54-4.59-10.79-3.08,9.77,4.33,16.23,3.57,24.33-6-1.89-6.34-11.75-12.27-10.49-4.87,1-.91,8.44-3.33,12.44-5.74-6-6.77-12.14-1-18.79,7-8.1,1-27.45-9.35-30.29,5.65,8.92,5.6,8.8-4.11,13.14-4.1,1.83-4.68,5.57-1.67,8.72,4.47,4.67,5,5.28-.65,7.29-2.86,1-3,4.67-5.66,4.68-4.64-6,5-9,2.24-15.18-2.55-5.69-8.2-5.26-12.08-9.36,6.91,2.67,10.13-1.65,14-6.21,4.16-4.9,4.47-10.25,5.38-16.3,1.13-7.55,4.69-14.68,7.19-22,1.05-3.07-2.28-5.83-2.48-4.81-1.11,5.73-7.46,7.13-8.28,11.29-4.25,21.55-16,27.24-31.61,14.54-1.32-1.08-2.57-2.24-4.38-3.82,8.06-5.17,8-10.36.94-16.1-7.29-5.88-9.6-14.93-11.87-23.89-1.11-4.37.11-7.24,5.07-8.32-1.84,14.81,7.76,12.52,17.39,11.64-2.89,3.73-5.15,5.87-6.45,8.57-1.22,2.51-2.09,5.91.7,8.09,6.24,4.87,17.37,3.5,23.72-2.91,1.28-1.31,2.83-3.42,4.06-2.61,2.89,1.89,4.27,4.51,5.84-1.75,1.08-4.31-.32-6-1.74-9.25-3.71-8.53-16.7,3.08-17.49-10.17a2,2,0,0,0-1,0c-6,2.09-11.63,8.2-17.89-1.59-1.72-2.69-3.8-3.15-1.09-5.57,4.23-3.77,8.81-6.49,14.85-6.46,10.92.05,22,3.24,32.77-1.95,4.44-2.13,12.13,1.74,11.92,3-1.63,9.61,6.31,6,9.3,8.87,1,.9,2.57.92,3.82,1.5C211.49,29.2,220.23,48,237,55c1.55.64,1,5.67-.42,8.29-1,1.86-2.8,3.22-4.2,4.85-1.54,1.8-.61,6.71-5.78,3.62-3.49-2.08-6.07-3-4.51-7.79.72-2.23.93-4.25-1.13-5.8-7.18,4.62-6.17,9.67-1.37,15.68,2,2.43,5.25,3.77,5.77,7.49,2.42-3.71,4.73-4.89,7.28,0,1.62,3.08,3.6,5.92,5.42,8.87-2.43-7.82,3.6-2.92,6.1-4.52-2.45-3.33-4.88-6.69-4.71-11.84,5.44,1.13,6.88,5.51,8.84,9,5.12,9,10.42,18,17.1,25.75,5.3,6.19,2,7.72-3.44,8.43,2.46,5,1.95,11.72-2.15,12.78-6.12,1.59-6.1-6.9-11.26-12.06,6.23,1.29,10.27,3.3,13.65-.42-.18-1-.36-1.93-.53-2.89-6.4,4.79-8.95-1.23-12.43-5.06-1.73-1.91-2.25-5.56-5.75-5.19a6.34,6.34,0,0,1-.58,3.82c-6.23-7.63-12.6-15.16-17.36-24-8.22-4.34-4.28,6.58-7.05,7.95-4.74-1.59-4.33-9.39-10.26-7-.63,13.72,9.72,19.22,18.14,21.58,6.55,1.84,5.81,4.37,6,8.73-9.48,3.62-12-7-19-11.63,1.05,8,1.38,14.5,5.68,20.17,1.27,1.67,6,4.88.22,7.49Zm-9-88c-1.26.39-2,1-2.48.73-8.55-4.32-8.48-4.23-14-.21a2.83,2.83,0,0,1-4.38-1.36c-1.24-3.31-1.41-7.3,2.63-8.07,9.7-1.85-3.28-4.51,1.06-6.73,7.77,1.88,13.44,7.13,17.16,15.64ZM339.17,493.73c9.84-1.06,9.71,7.29,13.95,12.49-9.86,1.21-9.47-7.43-13.95-12.49ZM231.66,332.42c9.73-.93,20.29,3,29-5.71-3.18-2-5.43.16-8,1-2,.61-6.68,3.14-3.41-3.31.14-.26-.61-1.06-.94-1.6-5.07,4.34-14.78-1.05-16.89,9.5h0c-3.41.07-6.83.1-10.24.21-4.23.15-9.43,0-10.53-4.67-1-4.19,2.55-7.65,6.85-9.32,1.94-.75,4.55-2.63,3.82-5.46-2-7.82-13.7-13.16-20.61-9.16-3.53,2-4.18,4-6.69-2.07-3.75-9,2.53-8.2,8-11.74-6.77,1.68-5.15-9.74-12.37-5.38-1.09.65-1.47-2.94-1-4.54,2.68-8.73,1.62-10.2-7.77-11.25-2.18-.24-4.84-.35-2.82-4.78,3.63-8,1.84-13.36-7.42-12-5.58.81-9.46-3.85-12.22-6.41-3.81-3.54,3.42-5.43,5.3-8.47,3.14-5.06,1.2-6.47-3.85-6.65,8.06.46,14.12-9.27,22.29-4.1-1,4.26-6.1.17-7.1,5.68,16.2-4.54,26.8,6.19,37.8,15.35,6.05,5,4.61,11.54-2.7,14.46-2,.81-4.9-1.52-6.79,3.28,7.06,1,14.09-1.41,20.62,1-.09,3.09-5.42,1.89-4,5.39s4.49,1.47,6.12.23c4.14-3.17,6.8-.65,9.57,2.09,4.61,4.57-4.33,3.78-2.88,7.45,16.47-3.76,27.84,9.21,41.12,14.6,16.49,6.69,24.39,26.9,39.68,36.67,1.73,1.11.52,1.36-.24,2-4.51,3.68-1.9,4.42,1.63,4.33,3-.08,4.66,1.22,6.69,3.79,3.85,4.89,9,5,15.56,1.58-3.93-1.35-6.56-2-9-3.14-3-1.37-6.08-3.74-4-7.48,1.75-3.15,4.89-1.46,7,.69,7,7.19,15.93,10.12,24.57,14.25,23.61,11.28,29.54,7.73,30-20.58a4.3,4.3,0,0,1,.93-2c3.3-.08,1.45,4.19,4.81,4.47-.35-13.4,14.55-22.69,8.9-38.21-4.31,2.26,0,7.7-4.93,9.84.61-7.53-1.17-14.12-3.81-20.48-8.5-7.78-10.13,4-16.19,5.36,4.62,5,13.14-9.16,14,5.22.45,7.37-.91,12.17-10,9.63,2.34,4.76,4.44,7.81,5.37,11.23,1.72,6.3,0,12.87-2.4,18.21-2.32,5.16-5.34-1.3-8.23-1.72-3.56-.51-6.24,1.25-6.9,4.91-.85,4.75.71,4.94,4.33,2.47,2.1-1.43,2.46,1.42,2.1,3.28-.4,2.08-.33,4.5-3,5.18-3,.76-5.27-.94-7.6-2.5s-2.6-3.55-1-5.57c5.82-7.37,2.13-10.15-4.5-12.3s-6.44-2.4-3.55-11.12c.87-2.63,1.31-5.31-.5-8.4-2.32,3.7-2.86,9.93-6.5,9.35-9.61-1.55-19.8,1.77-30-4.95,11.46-4.62,23.54-9,18.2-26.44-4.94,3.17-10.49,6.73-13.66,10.76-6,7.68-4.88,8.74-10.18,10.09,2.77-10.49,4.42-21,15.94-24.58,2.93-.91,5.81-4.37,3.4-7.46s-4.76-.24-7.25,2.36c-5.74,6-12.38,10.25-19.8,3.58,4.33-5.07,8.65-9.77,12.52-14.88,1.14-1.5,2-4.69,1.26-6.16-1.66-3.44-2.84,1.71-4.63,1-8.6-3.57-12.81,8.93-21,6.86a16,16,0,0,0-.55,1.73c1.47,3.55,6.13.18,7.57,4.26-6.78,6-9,19.23-23.3,16.61,2.88-2,4.47-2.75,5.51-4,2.16-2.6,6.55-4.06,5.31-8.65-1.45-5.4-4.79-1.09-7.34-1.28-2.3-.17-4.3-2-4.72-5.06-.47-3.5,1.59-4.62,4-5.4,6.42-2.09,12.6-5.1,20.34-5.53-4.2-7.41-9.43-5-14.72-3.8a65.5,65.5,0,0,1,26.26-22c2.16-1,3.79-1.87,3.3-4.57-.38-2.1-1.92-3.24-3.74-2.12-7.85,4.84-18.17,8-22.72,15.3-5.57,9-14.27,11.42-21.15,16.41-4.21,3-9.86,10.45-18.81,7.21,9.7-9.72,24.69-12.92,27.45-30.36-8.28,2.32-11.49,9.55-14.84,14.68-4,6.07-7.39-.59-10.83,1.8-1.36.94-2.43-2.92-2.05-5.16.9-5.29,4.77-2.5,7.44-3.15,4.83-1.19,9.73-2.48,12.26-9.24-5.77.43-9.11,7.71-13.18,3.25-4.55-5,7.16-4.64,3.58-11.15-3.91.9-7,3.48-9.54,7-2.3,3.15-6,8.5-8.52,5.48-4.61-5.49,3.53-5.9,5.27-9.19.62-1.15,2-2,.67-3.75-4.71.47-9.63,2.88-14.54-.39,2.07-9.06,16.29-2,15.46-14.72-2.42.41-4.71,4.18-6.84,1.92-2.5-2.64,2.08-4.93,1.44-7.87-8.47.23-15,7.94-24.22,8.23,7.88-12.43,11.62-13.53,24.24-7.9.64-20.69,16.79-6.75,23.63-13.59-.9,4.55-3.24,6-6.84,5.1-2.06-.5-4.58-.65-4.53,2.49.06,3.62,3,3.68,5.38,3.26a64,64,0,0,0,12-3c2.68-1,4.76-3.21.8-6-6.05-4.28-2.09-7.86.86-11.42,4-4.84,6.15-.93,9,1.89,6.69,6.49,10.31,15.43,16,22.68.56.71,1.42,1.75,3-.91,1.78-1.63-5.09-3.35-1.45-6.31,4.73,3.57,6.92,10.19,11.93,12.93-2.11-15.36-16.16-20.21-23.65-30.91,13.34,4,25.43-7.27,26.38-25.56-1.29,9.3-15.25,7.14-13.79,19.32.2,1.61-4.29,3.13-4.85,1.19-2-6.8-4.38-2.81-7.12-1.09-2.56,1.6-5.2,1.52-7-.54-.28-4.48,5.18-6.36,2.65-12.72-3.61,8-15,4.16-15.62,16.22-.3,5.67-8.07,3.7-11.43,7.2-2.63,2.73-5.06,4.61-8.54.76-4.33-4.8.54-6.27,2.78-8.7-9.69-5-18.83-9.71-29.3-5.25,1.53,3-2.9,4.63-1.55,7.61h0c.68,0,1.51.36,2,.06,4.7-2.87,10.51-4.9,13.39.58,1.6,3,4.77,6.78,4,11.36-4.94-1-8.15,8.09-14.53,2.43-1.7-1.51-7.09,1.88-10.72,3,1.08,3.83,4.9.82,5.66,4.35-3.72,3.47-7.85,5.37-13.68,3.92,2.72-6,2.57-11.28-5.23-13.86,6.54-2.57,11.09-8.54,17.81-3.45,1.92,1.46,4.14-.7,5.18-2.4,2.61-4.31-3.27-3.61-3.54-6.39-11.42,3.59-23,3-36.62,2.39,5.21-2.63,7-7.61,11.27-6.48,9.29,2.43,17.9-1.26,26.76-2.85,5.89-7.73,15-8.88,23.19-12.29-3.61-5.68-11.65,5.21-12.84-5.47,4.73,1.82,8.23-1,11.37-4s4.85-6.72-.49-9.15c-4.88-2.23-4.1-9.36-10-11.59-3.48-1.32,6-5.95,1.52-10.56,3.77,3.54,12.68,3,8.14,13.23-.85,1.92,1.27,6.46,5.26,6.63,1.49.07,3.13-.51,2.29-2.35-3.66-8,.84-3.8,2.9-2.26,6.41,4.78,10.35,4.18,13.86-4.39,2.06-5.05,9.79-5,12.49-10.73,5.86,3.52,9.52,11.89,18,9.64.25,11.77,7.48,3.27,11.34,4.47,1.05.32,2.11-.92,3.84-.77,13.33,1.2,11.25,8.89,8.39,18-.23.72,1.35,2.4,2.37,3.25,5.36,4.46,4.08,9.24.74,14.18-1.19,1.74-3,3.27-.77,5.63s4.21,1.3,6.49,0c5.65-3.22,3.85-9.7,6-16.43,3.43,9.34,10.08,14.22,14.52,21.17,1.67,2.64,4.43,2.88,7,.36,1.32-1.3,2.69-3.86,5-1.33,1.66,1.79,2.37,4,.89,6-1.14,1.47-.41,6.2-4.26,3.79-3.69-2.32-3.53,2.09-5.25,3.19,8.18,7.92-4.63,5.53-4.11,10.34,4.81,1.82,9.69,4.9,14.73,5.25,7.22.5,4.7-9.23,8.87-13,3,18.47-.93,25.79-17.91,34.38,8.76,12.23,13.68-3.66,20.81-3.35,2.85,3.14,2.55,8.4,9.72,8.41,6.78,0,7.26,8.34,2.05,15.35-2.94,4-5.13,8.62-7.36,13.14-1,2.11-2.58,4.48-.23,7.05,2.11,2.31,3.59.54,5.37-.4,5.54-2.92,7.47-.58,6.91,5.6-.3,3.32-.26,6.68-.34,10,2.72-4.85,9.45-2.94,12.43-8.74-5.91,12.72,12.7,17.69,6.56,33-3.4,8.5,12.11,20.63,8.42,34.91-1.84-1-3-2.28-4.21-2.27-2.49,0-2.93-7.12-6.08-2.47-2.46,3.63,1,4.35,3.55,5.77,2.86,1.6,3.47,4.93,1.66,5.83-6.38,3.2-2.31,7.29-.07,9.13,5.4,4.45,5.11,8.95,1.94,14.38-4-2.87-5-9.47-10.9-10.78-1.46,11.88,4.33,22.28,3.38,33.5-.19,2.17.46,4.45,3.4,4.35,3.52-.13,3.58-2.46,3.33-5.36-.51-5.85-.76-11.72-3.44-17.14,5.82,4.31,7.5,10.93,7.47,17.43-.06,11.35,2,20,14,20-9.34,5.77-1.47,14.09-3.93,20.74,3.41.08,2.91-4.77,5.84-3.47,1.24,4.18-1.92,6.62-2.21,9.87-.15,1.69-.68,3.8,1.34,4.89,3.61,2,3.81,2.26,3.85,4.47,0,2.37-1.39,4.5.63,7.17,5.4,7.14,5.36,15.76,4.75,27.35-18.66-42.44-34.73-83.16-57.36-121,4.23,6.75-8,5.4-4,12.21,10.49,17.77,17.53,37.46,24.28,57.06,4.26,12.39,15.42,22.77,10.85,38.27-.58,2,1.8,1.15,2.82,1.66,4.39,2.18,5.22,7.18,6.78,11.47a2.3,2.3,0,0,1-2.19,3c-4.21-.47-7.57-2.91-10.06-6.58-.57-.84-.29-2.65-.93-3.1-2.88-2-7.63-6-8.67-5.11-4.16,3.58-4.73.2-6.54-2.3-3.72-5.12-2.13-15.31-4.33-16.39-13.25-6.52-10.32-23.46-19.33-32.37-2.89-2.85.32-11.08-7.13-11.17,2.89-11.17-7.15-12.92-11.93-18.89,1.76,13.49,14.19,25.58,4,39.67-3.11-4.49-2.4-10.51-3.69-16.51-.58,2.21-1.17,4.42-1.8,6.82-11.15-8.05,0-23.84-9.47-32.94C340,396.66,350.75,404,343.17,412c-1.25-15.63-13-29.76-1.86-45.48-6.27-4.14-9.14-1.34-8.46,6.14.81,8.94,2.34,17.8,3.75,28.06-5.45-4.87-6.4-10.22-8-15.67q-1.24,7.31-2.48,14.6c1.24.41,3,.39,3.64,1.31,16.18,24.18,29.34,50.38,42.93,76.29,1.38,2.63,1.63,5.48-.45,8.91-3-3.4-4.25-7.48-5.74-12.1-.79,1.22-1.37,2-1.82,2.84-.63,1.2-.74,3-3.06,2.4-.11-1.69-.25-3.5-.35-5.31-.16-3-.17-2.92-4.49-4.42a2.91,2.91,0,0,1-1.44-2.3c2.16-10.25-7.93-15.66-8.25-24.89q-1.47,4.47-2.92,8.94c.44-15.6-8-27.43-12.53-41.84-2.81,7.61,1,16.37-6.47,21.17-1.5-10.63,2.88-20.8,1.14-31.21-3.07,1.52-.77,6.57-4.55,8-2.94-4.17,0-9.48-2.62-14.15-1.84,5.32-3.52,10.22-5.62,16.31-2.74-7.12-.26-12.3.34-17.65,1.19-10.73-3.21-16-10.73-12.65.61-3.51,1.76-6.78,1.59-10-.26-4.93-3.14-9.69-7.58-6-3.78,3.16-2.78,3-3.82-1.37-1.12-4.76-6-7.56-8.06-1.89-2.12,5.84-7.67,7-9.37,10.06-7.26,13.15-17,13.69-28.8,10.1,6,.61,14.47-1.21,14.71-5.77.53-9.8,6.63-12.76,14.28-18.25-9.1.67-15.37,3.8-21.69,2.77-1.94,4.55,6.71,2.48,2.85,7.23-3.24,4-8.2,4.15-12.54,5.61-1.33-11.43-6.34-3.63-10.17-2.34-3.33,1.12-6.35,1-9.48-4.42,7.88,1.88,12.55-3.59,18.52-4.54h.1c0-11.09-13.6-4.63-15.43-13.8,8.2-.13,8.15-.2,15.58-6.37.75-.62,2.65-.21,3.73.36,3.39,1.78,6.19-.24,8.67-1.84,3.59-2.33,5.79-3.8,10.53-.64,6.17,4.13,14.27-3.37,13.22-12.71,6.33,5.4,12.34,1.35,19.1.6-12.12,12-27.45,16.5-39.6,26.59-3.49,2.9-6.63,5.85-11.7,3.51-2.75-1.26-4.37,1-4.2,4.28l-22.93-5.88c6.36-6,6.38-15.55,11-22.23Zm9.09-36.2c-3.53,4.35-6.39,8-9.39,11.5-1.36,1.59-4.93,2.91-4.92,2.37.13-5.8-6.45-7.41-6.42-12.82,0-.47,1.23-1.44,1.35-1.34,6.22,4.74,12.94-2.37,19.38.29ZM410.84,458.36l-2.46,1.73c-14.31-23-25.81-47.73-38-72l2.93-1.8q18.8,36,37.57,72.06ZM283.24,209.63c.14,1.74.19,2.1.19,2.47,0,4-1.35,7.2-4.72,9-.77.42-2.49.45-2.79-.05-2.24-3.68,1.52-4.8,2.79-7,.77-1.33.13-1.72-.95-1.94-2.59-.52-4-1.82-1.27-4a11,11,0,0,1,5.69-1.89c.36,0,.95,3,1.06,3.36Zm54.25,60.83a63.43,63.43,0,0,1-14.84-24.72c7.81,6.18,12.36,14.73,14.84,24.72ZM362,299.18c6.11,7.65,12.07,15.38,13.57,25.85-6.26-7.55-13.06-14.78-13.57-25.85ZM292.43,157.59l21.92-16.66c-.34,8.69-8.88,15.74-21.92,16.66ZM350.66,236c1.12,11.07-8.9,13.59-8.66,23.67-6.11-10.45-13.38-17.16-18-28.08,9.64,2,13.91,27.3,26.67,4.41ZM219.18,135.52c6,4.55,9.94,10.84,12.63,18.14-4.56,3.06-12.18,2.15-11.6,11.89.15,2.57-4.17,3.81-6.54,1.56-1.39-1.33-5-3.22-1.33-6.56,3.2-2.88,3.1-5.7-.66-8.44-2.09-1.52-4.5-3.43-4-6.82,6.77-3.47,9.4,1.94,12,8,4.21-7.15.17-12.37-.5-17.81Zm74.44,250.31h0c-8.85,3.33-1.63,12.43-5.32,18-3.1-6.35,4.16-16.46-6.72-19.63-1.07-.31,1-5.08,3.48-5.38,4.61-.54,9,.16,8.32,7.24,5.43,2.18,5.57,7.45,6.48,12.48.4,2.18,1.87,4.59-.86,5.44a4.08,4.08,0,0,1-5.28-3.79c-.4-4.75-.1-9.57-.1-14.37Zm-110.74-218h0c-2.72-9.59,3.71-10.32,9.53-11.56,3.05-.65,2.22,3,1.89,3.18-4.13,2.31-5.45,9.45-11.65,8.08-.09,1.07-.14,2.15-.28,3.21-1.06,7.73-6.75,2.63-10.09,4.08-1.79.77-3.41-2.32-1.88-3.44,9-6.51,4-17.4,6.72-26.85,4.31,8,.78,16.9,5.76,23.3Zm-3.08,147h0c8.69,8,7.78,20,10.84,30.81-9.18.8-10.75-4.58-8.88-13.71-6.06,3.8-11.65,6.14-17.68.46-.26,2.64-.55,4.07-.52,5.5.07,3.42-1.74,4.38-4.49,4.65a5.69,5.69,0,0,1-6-3.45c-1.76-3.89,2.35-3.59,3.83-4.82,7.22-5.94,11.83-16.15,22.51-16.64.26,0,.44-2,.67-3.1-3.37.26-6.82,1.08-10.09.58-2.41-.37-5.5-2-3.35-6,1.8-3.42,4.13-3,6.77-1,2.48,1.89,10-1.95,6.36,6.76Zm225,303.09h0a11.18,11.18,0,0,1,.9-9.41,40.22,40.22,0,0,1,5.45,10.63c1.24,4,3.61,9.55,6.57,10.54,10,3.33,18.48,8.1,22.56,19.41,4.28-3.49-.48-7.69,2.69-11.35,4.7,6.47,11.15-2,16.56,2.41-7.86-14.24,7.93-27.47,1.11-41.8,1.76,1.65,2.56,3.68,3.91,5.1,5.73,6,2.18,21.5,16.35,19.14.41-.07,2,2.89,1.66,3.71-3.48,7.9,1.29,13.94,5.2,18.28,5.16,5.74,3.78,11.61,3.76,17.82,0,1.11-.55,2.67-.07,3.27,9.89,12.28,4.19,26.85,5.09,40.43,0,.26-.9.6-1.28.84-6.06-1.46-2.92-22.15-16.64-7.83.77-6.06-2-10.13-3.55-14.59-2.56-7.21-7.78-14.46-7.45-21.44.47-10-3.62-16.37-8.35-23.27-.46,3.33,2.2,7.46-.87,9.88-3.29,2.61-3.74,2.16-2,5.61,2.28,4.5,4.59,9,7.23,13.27,1.63,2.63,3.49,5.68,1.37,8-5.07,5.64-2.94,11.17-.81,16.87.65,1.72,2,4.5.53,4.92-7.53,2.15-7,10.14-9.93,17.09-.51-2.77-.37-4.43-1-4.84-3.38-2.34,7.95-13.76-5.15-9.84-.56-5.7-1.46-11.17-7.36-13.41,7.56-10.7-2.4-16.87-5.4-25.07,2.12,9,3.87,17.77-2.58,26.5-1.53-3.92-2.55-7.83-4.46-11.14-5.15-8.94-5.36-21.52-16.19-26.3-4.41,4.78-1.18,9.45-.09,14.36,1.14,5.12,5.78,9.63,3,17-5-10.61-9.5-20-13.85-29.4-1.23-2.66-1.56-5.58-5.46-2.52-8.64,6.77-9.95,0-10.28-7.32-.74-16.36-3.11-32.18-11.79-46.13-.31-.51,0-1.45,0-2.54,13.59-4.35,10.31,14.35,19.43,17.17,1.2-6.68-4.51-11.39-3.76-18.2,8,6.71,9.92,16.55,15,24.14ZM243.31,404.8h0l5.44-7.22c1.84,5,2.89,8.9,6.85,10.29,2.4-3.85-4.4-6.28.19-11.58.58,11.82,14.15,7.61,16.08,17.94.11.57,2.08,1.31,2.13,1.22,5-8.24,7.85,9.45,12.73,1.24,3.15,10.26,12.18,14.67,18.2,22A180.06,180.06,0,0,0,325,459c9.56,8.51,21.13,15.17,24.9,29.76.67,2.57,6.43,6.12,6.58,5.94,6.6-7.78,8.47,1.86,12.41,3.65s5.33,7.33,10.21,8.08c.48-3.69-4-6.84.68-10.17,3.83-2.75,6.55-1.14,9.15,1.06,9.82,8.27,19.59,12.13,32.38,6.43,5.84-2.6,11-9.12,15.08-9.29,15.93-.65,13.68-14.19,16.94-23.93.73-2.19-.55-5.11,2.56-7.17,3.8,6.86,3.12,13.33,1,20.51-.87,3,2.79,6.25,3.28,10.19,1,8.21-5.65,2.93-5.64,3.47.12,5.75-3.6,13.09-5.09,14.59-7.45,7.49.87,11.26,1.68,16.45.42,2.71,3.73,4.7,1.81,8.17-4-.35-4.94-4.61-7.42-6.86-1.09-1-3.13-4-3.57-1.71-2.27,11.67-4.52.62-6.76.32-6.23-.83-9.21-7.39-15.08-9.22,7.31,6,5.32,21,19.15,21.24,2.73,0,6.06,8.28,7.75,13.29,1.59,4.68-3.38,3.13-5.4,4.39-4.93,3.07-.59,6,.51,8.15,4.41,8.76,4.6,8.65,3.81,15.68-5.08-12.7-12.5-21.2-23.15-27.41,1.75,12.84,17.44,22.15,7.38,38.79-3.32-15.8-13.47-25.89-18.08-39.14-.48-1.38-1.84-4.33-4.71-2.5-2,1.28-3.31,2.94-2.48,5.39.69,2.05,2.55,3.71,3,5.76,1.78,8.65,12.23,8,14.45,16.89,1.44,5.79-2.18,8.77-2.81,13.16-2.6-4.43-9.07,1.12-10.89-4.77-2.47-8-5.45-15.52-12.7-19.82-3.12,1.94.69,6.74-3.93,9-9.64-14.84-5.39-35.81-18.52-50.59,1.8,11.15,8.38,21,1.88,30.7-10.55-6.6,3-20.25-7-27.46-1.61,2.39-2.75,6.33-5.52,5.76-3.11-.63-.46-5.44-2.69-7.46-2.78,1.12-.5,6-4.11,6.62-1.51-4.55-1.8-4.87-4-2.51-2,2.06-2.36,1.7-3.23-.73-1.82-5.14-5.75-9.26-6.16-15.12-.06-.84-.85-1.61-1.29-2.38-3.36,2.14.42,7-3.36,8.72-3-4.06-10.66-11.67-11.32-11.58-6.34.95-5.21-13.3-14.14-8.88-.33-10.56-7.25-18.85-12.89-28.43,8.05,11.49-.62,21.5-2,33.29-4.42-11.14-13.91-18-16.56-29.73-.56-2.48-1.05-4.56-3.72-3.77-11.08,3.26-18-3.29-24.29-11.7-2.29-3-4.47-6.42-7.81-7.88-2.7,1.92.37,5.79-3.09,8-.87-4.13-2.74-8.14-2.18-11.72.5-3.22,6.74-5.82,1.44-9.69-4.9-3.58-5.06,4.5-8.55,5.17-4.49.86-3.92,4.46-1.43,6.12,5.63,3.76,4.06,8.91,1.55,12.35-3.38,4.63-1.16,8-.58,12,4.34-.84.54-6.65,5.65-7.49,0,4.71-.11,9.1.05,13.49.08,2.42-.77,6.76,2.13,6.55,10.43-.73,5.36,6.77,6.14,11.06-11.48-.85-18.3-10.08-19.36-19.33-1.35-11.84-7.61-23.95-1.47-35.84-2.83-2.58-4.18,3.25-7-.3,8.42-7.71-3.9-18,3.36-28.15l5.78,7.17c-2.27-5.36.38-14.3-9.34-14-2.05.07-2.38-2.61-1.57-4.37,1.35-3,2.56-.17,3.85.37,1.91.8,3.85,1.5,5.78,2.21-.34-8.45-10.11-12-10.12-20.93,12.79,2.27,12.12,11.25,10.14,20.91,9.86,11.86,19.11,24.43,29.83,35.29,6.19,6.26,14,12.25,24.41,8.57-9.33-2.16-12.75-10.53-17.29-19.53-.77,3.77-1.21,6-1.92,9.52-8.68-11.87-11-25.89-17.73-37.34-6.12,1.65.39,9.14-5.73,12-2.11-8.22-7-15.26-5.89-24.41,1.27-10.16-12.73-8.89-12.76-18.88,15.69,4.58,19.43,18.51,24.06,31.68Zm-13.1,205.06h0a278.71,278.71,0,0,1,39.13-48.41c2.94-3,6.65-5,10-7.44,3.22-2.3,6.68-2.21,9.59.24s.85,5.4,0,8.09c-4.16,12.59-10.06,24.27-16.66,35.48-2.27,3.87-4.77,8.74-9.64,9.25-10.14,1-20.17,3.8-32.42,2.79Zm102.8,6h0c-10.74-6.09-20.86-4.05-30.9-4.14-4.62,0-10.19-2.11-7.73-8.38,3.38-8.62,5.4-18,11.66-25.39,4.48-5.26,7.5-5,11.46.14,8,10.37,12.36,22.43,15.51,37.77ZM202.28,380.13h0c-4.26-.4-6.13-.67-8-.73-2.81-.09-5.49-.16-6.48-3.91-1.07-4.05,2.75-3.39,4.08-5.13a21.09,21.09,0,0,1,3.67-3.76c2.18-1.72,3.39-3.77,2.18-6.61-1.29-3-3.54-.79-5.37-.87-5.69-.25-11.43-.17-17-1.1-1.23-.21-7.5-1.56-1.78-6.88,3.84-3.58,5.53-6,10.54-2.11,4.55,3.53,10.57-3.58,16.32,2.13,5.16,5.14,6.69,11.71,9.53,17.75,2.17,4.6-5.79,9.38-.7,14.66-.72.7-1.32,1.71-2.16,2.06-11.74,4.92-23.9,1.15-35.85,1.86-.81.05-1.72-1.85-2.71-3,7.21-3.27,13.31-11.45,21.41-1.83,2,2.35,6.88.68,12.35-2.55Zm160,227.2h0c3.25,4.12,1.28,10.17,6.59,12.95,4.56,2.38,6,7.58,7.81,12.38,3.83,10.2,7.92,20.29,11.81,30.46,1.66,4.34,4.74,9.84-.78,12.54-5.11,2.49-7.12-3.61-9.69-7.27A9.89,9.89,0,0,1,376.2,661c1.05-6.24-1.5-11.18-3.65-16.06-3.06-.22-1.11,5.35-5.38,3.6,6-8.52-6.55-11.91-3.23-20.05-3.93,1.09-1.24,5.44-5,6.13-2.28-9.52,6.36-17.61,3.33-27.33Zm65.18-246.14h0c-1.05,9.83-7.17,19.83,5.18,24.65-6.36,12.74,9.49,12,11.19,20.35-11.8-1.25-20.56-13.53-21.26-27.67-.41-8.08,2.91-16.27,1.4-23.56-1.47-7-1.9-13.14,0-20.13,3.92,4.47.17,11.1,3.8,15.46,3.12-2.63-.15-7,3.2-9,2.31,8.15-2.8,20.1,10.75,22.36-5.53,4.52-10.54,10.23-14.3-2.43Zm-286-162.63h0c4.39,1.33,8,3.53,12,.77,4.53-3.06,7.9-.12,10,4.26,2.27,4.76,6.83,10.07,3.69,15-2,3.17-6.45-1.42-9.8-2.72-1.81-.7-4.05.05-6.06-.17-3.05-.33-7.22,1.69-8.19-5.31,4.45,1,9,1.71,10.69-4.51-4.21-1.63-10.19,1.17-12.36-7.33Zm61.28,207.22h0c1.87-4.31,7.64-6.64,4.58-10.88-4-5.51-5.74,2.23-8.83,2.88-5.42,1.13-10.86,2.43-16.34,2.77-1.59.1-5.49.33-5.46-3.25,0-3.32,3-3.9,5.37-3.41,7,1.44,13.39-.72,19.76-3.5,3.77-1.64,7.77-1.32,10,2.59,1.58,2.72,4.37,5.57,2.11,9.77-2.52,4.7-6.21,3.35-11.23,3ZM266.8,516.87h0c-2-8.6-1.73-16.11-4.2-22.93-.72-2-1.78-5.5,1.17-6.84,2.18-1,4.67-.41,6.7,1.47,5.8,5.37,4.9,14.37,10.51,19.85-6.64-.56-8.12-6.4-11.3-10.85-2.8,6,.68,12.15-2.88,19.3Zm-90.25-243h0c-5.07,1.3-10,3.75-14.12-1.77-3.18-4.22-6.43-8.59-12.6-8.55,6.69,1.42,11.59-3.91,17.17-4.47,8.9-.91,2.5,12.58,9.55,14.79Zm60.88,296h0c4.29-8,8.62-16,12.82-24.12.95-1.83,2.14-3,4-2.56,2.8.6,2.09,3.35,2.22,5.33.5,7.84-10.83,8.45-9,17.19-.68,0-1.36,0-2,0-3.79-.29-4.58,3.61-8,4.2ZM158.67,159.07h0c1.49,3.74-1.26,9.69,4.27,11.72.88.32,2-5.32,3.23.07.45,2-.33,2.65-1.93,3s-3.48.38-3.52,2.92c3,4.55,8.31-.73,12.5,3.28-5.51,2-10.35-.18-14.89,1.84-2.69,1.19-4.17-1.74-5.6-3.8-.95-1.36-1-3.37.33-3.73,8.77-2.39,3.31-10.41,5.61-15.27Zm72.21,422.79h0c-5.42,11.67-12.36,21.78-23.06,28.17,6.82-10.26,12.92-21.17,23.06-28.17Zm82.31-159.5h0l18.76,30L329.57,454c-7.8-8.92-15.66-17.79-16.38-31.66Zm-101.4,51.1h0c-8.66-5.78,1-15.51-5.85-23.1,13,6,12.23,14,5.85,23.1Zm31.51,3.12h0c2.26,6.76,14.14-1.45,12.21,7.93-1.16,5.65-1.48,12.1-4.22,17.67-1-9.13.08-18.69-8-25.6ZM205.59,425.1h0c-2.48-1.53-4.9.77-6.88.24-3.06-.8-6.11,7.06-7.88.72-.83-3,4.53-5.08,7.79-6.08,2.18-.68,4.72-.19,7.08,0s6.48-2.29,6.72,2c.3,5.68-4.42,2.31-6.83,3.14Zm91.17,109.14h0c-2.18-8.41-4.07-15.67-6.3-24.28,11.59,7,12.41,10.38,6.3,24.28ZM83,49.77h0c-4.3-.86-9.9,4.35-11.68-2.55-1-3.74,2.35-9.53,4.92-9.6,6.53-.21,4.26,7.79,6.76,12.15ZM84.16,74h0c1.37-2.38,3.1.37,4.36-.48,4-2.68,8.15-3.81,12.51-1.37.37.21.11,2.94-.56,4-3.8,5.89-8.58,1.7-13,1.24-1.4-.14-2.68-.57-3.31-3.36Zm7.42-16.17h0c-8.23,3-16.68,9.28-25.31,0Zm69.65,234.22h0c-4.95-.32-5.06-6.94-9.3-7.85,2-2.48,3.72-5.28,6-7.33,1.59-1.41,2.83,1.3,4.36,1.79-2.61,4.71,1.54,8.38,1.53,12.66,0,.26-1.81.52-2.61.73ZM140.52,128.71h0C135,117.06,135,117,137.46,107.22c4,6.72,7.1,12.62,3.06,21.49ZM316.28,540.07h0c-2.71-3.82-8.68-3.47-10.51-9-.47-1.38-.16-4.94,1.74-4,4.28,2.23,9.6,3.31,11.9,8.59.4.91-.56,3.58-3.13,4.32Zm-164-243.64h0c8.07.48,14.51.33,19.93-5.35-.79,3.95,3,11.16-1.83,9.74-5.48-1.6-11.41,1.32-18.1-4.39Zm54.88,139.79h0c-.25-4.13,2.26-5.51,5-6.16,3.18-.76,4.2,2,4.66,4.6a6.52,6.52,0,0,1-4.84,7.41c-2,.45-4.56-2.72-4.82-5.85Zm-56.53-165h0c-12.38,1.16-12.91.36-10.26-15.68,3.07,6.37,2.19,14.75,10.26,15.68Zm69.73-40.77h0a26.88,26.88,0,0,0,8.15,1.75c1.52,0,3.53-.39,3.35,2.59-.22,3.68-2.75,3.22-5,3.92-7.09,2.17-4.06-5.63-6.46-8.26Zm161,220.24h0c-8.47-5.4-9.55-12.64-10.29-20.12C374.36,436.5,380,440.94,381.33,450.64Z"/></g></g></svg>